<svg width="93" height="67" viewBox="0 0 93 67" fill="none" xmlns="http://www.w3.org/2000/svg">
<path d="M21.1755 44.6547V46.8013H24.2526V47.3488H21.1755V49.7404H24.5735V50.2878H20.5411V44.1072H24.4641V44.6547H21.1755ZM77.709 39.1512H74.311V36.7596H77.3882V36.2121H74.311V34.0655H77.5997V33.518H73.6767V39.6986H77.709V39.1512ZM22.3932 33.41C24.2453 33.41 25.6381 34.7642 25.6381 36.6083C25.6381 38.4524 24.2453 39.8067 22.3932 39.8067C20.5411 39.8067 19.1483 38.4596 19.1483 36.6083C19.1483 34.7642 20.5411 33.41 22.3932 33.41ZM22.3932 33.979C20.913 33.979 19.7973 35.0884 19.7973 36.6083C19.7973 38.1283 20.913 39.2376 22.3932 39.2376C23.8735 39.2376 24.9891 38.1283 24.9891 36.6083C24.9891 35.0884 23.8807 33.979 22.3932 33.979ZM79.7872 39.6986H79.1528V33.518H80.8445C82.2518 33.518 83.0904 34.0295 83.0904 35.1532C83.0904 36.0176 82.5946 36.5579 81.6685 36.7452L83.4623 39.7058H82.755L80.9977 36.8172H79.7872V39.6986ZM79.7872 36.2626H80.8445C81.8727 36.2626 82.4341 35.8736 82.4341 35.1532C82.4341 34.4184 81.8435 34.0655 80.8445 34.0655H79.7872V36.2626ZM29.6194 49.7404H26.6516V44.1072H26.0173V50.2878H29.6194V49.7404ZM4.70323 61.9719L6.05951 66.8919H5.41054L5.05324 65.5377H3.44174L3.06257 66.8992H2.4136L3.86467 61.9791H4.70323V61.9719ZM4.92199 65.0478L4.2803 62.6707H4.26572L3.5657 65.0478H4.92199ZM85.4894 34.2312H85.5113L89.2885 39.6914H90.1489V33.5108H89.5145V38.9855H89.4999L85.7155 33.5108H84.855V39.6914H85.4894V34.2312ZM2.42089 17.1876C2.42089 15.1778 1.53858 14.4287 0.648973 14.4287C0.408342 14.4287 0.247922 14.4719 0.247922 14.4719L0 9.34297C0 9.34297 0.685432 9.06924 1.77921 9.06924C3.75529 9.06924 5.9793 9.78239 6.82515 11.4752H6.90536C8.60436 9.42221 11.3898 8.60101 14.4159 8.60101C19.6661 8.60101 23.9901 13.0168 23.9901 18.9309C23.9901 24.6433 19.9504 28.9798 14.9045 29.2175C14.1753 29.2535 13.4534 29.1743 12.8045 29.0158C11.1857 28.6988 9.8148 27.9497 8.64811 26.8475H8.5679V36.8749H8.56061C8.55332 38.5245 7.18245 39.8643 5.49075 39.8643C3.79175 39.8643 2.42818 38.5245 2.42818 36.8676V36.7884V17.1876H2.42089ZM8.56061 21.6754C9.56688 23.0153 11.0617 23.8797 12.7972 23.8797C15.5462 23.8797 17.8067 21.7474 17.8067 18.9165C17.8067 16.0783 15.5462 13.9532 12.7972 13.9532C11.0617 13.9532 9.52313 14.7384 8.56061 16.0783V21.6754ZM92.825 57.4625H2.36984V57.7723H92.825V57.4625ZM18.4994 50.2878V44.1072H17.6681L15.3785 49.5242H15.3639L13.067 44.1072H12.2357V50.2878H12.8701V45.1949H12.8847L15.0358 50.2878H15.7066L17.8504 45.1949H17.865V50.2878H18.4994ZM12.8628 34.2312H12.8774L16.6545 39.6914H17.515V33.5108H16.8806V38.9855H16.866L13.0888 33.5108H12.2284V39.6914H12.8628V34.2312ZM44.4072 44.1072V47.9467C44.4072 48.9696 44.8739 50.3887 46.7552 50.3887C48.6365 50.3887 49.1032 48.9696 49.1032 47.9467V44.1072H48.4688V47.9467C48.4688 48.7319 48.1042 49.8268 46.7479 49.8268C45.3916 49.8268 45.0271 48.7319 45.0271 47.9467V44.1072H44.4072ZM56.7961 50.2878H57.4305V44.8203H57.4523L61.2295 50.2878H62.0899V44.1072H61.4555V49.5819H61.441L57.6565 44.1072H56.7961V50.2878ZM56.2492 16.1215C57.2555 14.6664 58.4732 13.9532 60.2889 13.9532C62.79 13.9532 64.0879 15.8478 64.0879 18.722V28.7709H70.2276V18.722C70.2276 12.6494 67.5223 8.59381 62.192 8.59381C59.6472 8.59381 57.1023 9.69595 56.0158 12.0227H55.9283L55.8044 9.06924H50.1095V28.7781H56.2492V16.1215ZM29.7871 36.738L31.5809 39.6986H30.8736L29.1163 36.81H27.9058V39.6986H27.2714V33.518H28.9632C30.3705 33.518 31.209 34.0295 31.209 35.1532C31.209 36.0176 30.7132 36.5507 29.7871 36.738ZM30.5601 35.1532C30.5601 34.4184 29.9694 34.0655 28.9704 34.0655H27.9131V36.2626H28.9704C29.9986 36.2626 30.5601 35.8736 30.5601 35.1532ZM61.2732 34.0655V33.518H57.3502V39.6986H61.3826V39.1512H57.9846V36.7596H61.0618V36.2121H57.9846V34.0655H61.2732ZM53.6095 47.3272L55.4033 50.2878H54.696L52.9387 47.3992H51.7282V50.2878H51.0939V44.1072H52.7856C54.1929 44.1072 55.0314 44.6186 55.0314 45.7424C55.0314 46.6068 54.5283 47.1399 53.6095 47.3272ZM54.3752 45.7352C54.3752 45.0004 53.7845 44.6475 52.7856 44.6475H51.7282V46.8445H52.7856C53.8137 46.8517 54.3752 46.4627 54.3752 45.7352ZM43.153 33.518H42.5187V36.2193H39.0477V33.518H38.4134V39.6986H39.0477V36.7668H42.5187V39.6986H43.153V33.518ZM50.1386 39.6986L51.7428 34.3104H51.7574L53.347 39.6986H54.1856L55.9867 33.518H55.3304L53.7772 38.899H53.7627L52.173 33.518H51.3345L49.7376 38.9135H49.723L48.148 33.518H47.4844L49.3001 39.6986H50.1386ZM32.9007 16.1215C33.9143 14.6664 35.1247 13.9532 36.9404 13.9532C39.4415 13.9532 40.7395 15.8478 40.7395 18.722V28.7709H46.8792V19.3127C46.8792 18.1313 46.799 17.0291 46.6385 15.999C46.0333 11.7057 43.6926 8.90356 39.6092 8.66584C38.7998 8.62982 37.954 8.66584 37.1446 8.82432C35.5258 9.14128 34.0747 10.0057 32.9882 11.2663H32.908V0H26.761V28.7709H32.9007V16.1215ZM68.164 49.7404H64.766V47.3488H67.8432V46.8013H64.766V44.6547H68.0619V44.1072H64.1389V50.2878H68.1713V49.7404H68.164ZM70.2349 39.6986V34.0655H72.3568V33.518H67.4713V34.0655H69.6005V39.6986H70.2349ZM36.3644 47.1975C36.3644 45.3534 37.7571 43.9991 39.6092 43.9991C41.4613 43.9991 42.8541 45.3462 42.8541 47.1975C42.8541 49.0416 41.4613 50.3959 39.6092 50.3959C37.7571 50.3887 36.3644 49.0416 36.3644 47.1975ZM37.0133 47.1975C37.0133 48.7174 38.129 49.8268 39.6092 49.8268C41.0895 49.8268 42.2051 48.7174 42.2051 47.1975C42.2051 45.6776 41.0895 44.5682 39.6092 44.5682C38.129 44.561 37.0133 45.6776 37.0133 47.1975ZM64.5546 39.2376C63.5264 39.2376 62.9795 38.6397 62.9795 38.6397L62.542 39.0071C62.542 39.0071 63.2566 39.7995 64.5473 39.7995C65.7431 39.7995 66.465 39.0791 66.465 38.2219C66.465 37.0333 65.5608 36.7308 64.6712 36.3058C63.9858 35.9816 63.315 35.7655 63.315 35.0091C63.315 34.4257 63.8546 33.979 64.6348 33.979C65.4952 33.979 65.9109 34.404 65.9109 34.404L66.3265 34.0151C66.3265 34.0151 65.7358 33.4172 64.6348 33.4172C63.4681 33.4172 62.666 34.1159 62.666 35.0163C62.666 36.0897 63.541 36.421 64.3869 36.8244C65.0577 37.1414 65.8161 37.4151 65.8161 38.2291C65.8233 38.7838 65.3421 39.2376 64.5546 39.2376ZM37.1008 33.518H32.2153V34.0655H34.3445V39.6986H34.9789V34.0655H37.1008V33.518ZM32.6893 50.2878H30.9465V44.1072H32.5726C33.783 44.1072 34.7893 44.5106 34.7893 45.5767C34.7893 46.2538 34.3664 46.8085 33.7247 46.9454V46.9598C34.6727 47.1471 35.2341 47.7954 35.2341 48.6598C35.2268 49.8268 34.0456 50.2878 32.6893 50.2878ZM31.5736 46.7437H32.8278C33.3966 46.7437 34.1331 46.4195 34.1331 45.5695C34.1331 44.914 33.4258 44.6475 32.5653 44.6475H31.5736V46.7437ZM31.5736 49.7404H32.6893C33.7028 49.7404 34.5779 49.4234 34.5779 48.667C34.5779 47.7738 33.907 47.2984 32.8497 47.2984H31.5736V49.7404ZM27.7162 66.5246C27.7965 66.5246 27.8329 66.5102 27.8548 66.4885V66.8992C27.811 66.9064 27.6579 66.9352 27.5121 66.9352C27.286 66.9352 27.0016 66.9352 26.9725 66.4597H26.9579C26.7683 66.7911 26.4037 66.9928 26.0464 66.9928C25.3391 66.9928 25.0183 66.5822 25.0183 65.9195C25.0183 65.4008 25.2443 65.0478 25.7329 64.8966L26.5277 64.6661C26.9579 64.5364 26.9579 64.4139 26.9579 64.1042C26.9579 63.7584 26.7464 63.5567 26.3527 63.5567C25.7037 63.5567 25.7037 64.1474 25.7037 64.2843V64.3203H25.1131C25.1131 63.4775 25.4777 63.1101 26.3818 63.1101C27.534 63.1101 27.5339 63.7872 27.5339 64.169V66.2292C27.5339 66.3805 27.5339 66.5246 27.7162 66.5246ZM26.936 64.8822C26.7173 65.1127 26.1923 65.1559 25.9297 65.3144C25.7402 65.4296 25.6381 65.5737 25.6381 65.8979C25.6381 66.2724 25.7693 66.5318 26.1777 66.5318C26.5641 66.5318 26.9433 66.2076 26.9433 65.833V64.8822H26.936ZM72.1089 66.8992H72.7287V61.9791H72.1089V66.8992ZM75.0329 63.1029C74.661 63.1029 74.2673 63.2974 74.1142 63.636H74.0996V63.2037H73.5381V66.8992H74.1287V64.3491C74.1287 63.8088 74.559 63.6071 74.8798 63.6071C75.4194 63.6071 75.434 64.0682 75.434 64.3491V66.8992H76.0246V64.2771C76.0246 63.8449 76.0246 63.1029 75.0329 63.1029ZM76.7611 66.8919H77.3517V63.1965H76.7611V66.8919ZM76.7611 62.6347H77.3517V61.9719H76.7611V62.6347ZM78.9341 62.1304H78.3434V63.2037H77.7892V63.6576H78.3434V66.2076C78.3434 66.6903 78.4893 66.9424 79.1091 66.9424C79.357 66.9424 79.5101 66.9136 79.5903 66.8992V66.4237C79.5247 66.4309 79.4591 66.4453 79.3278 66.4453C79.0143 66.4453 78.9414 66.3301 78.9414 66.0347V63.6648H79.5976V63.2109H78.9414V62.1304H78.9341ZM64.7004 64.8822V65.1199H62.7097C62.7097 65.6818 62.7097 66.539 63.4389 66.539C64.0004 66.539 64.0806 65.9627 64.0806 65.6818H64.6712C64.6712 66.0779 64.4306 66.9928 63.4025 66.9928C62.4764 66.9928 62.0899 66.3661 62.0899 65.0983C62.0899 64.1762 62.2722 63.1101 63.4389 63.1101C64.591 63.1029 64.7004 64.0898 64.7004 64.8822ZM64.0806 64.4644C64.0806 64.0466 63.9494 63.5639 63.4243 63.5639C62.8045 63.5639 62.7316 64.3059 62.7316 64.5292V64.6661H64.0806V64.4644ZM66.8005 63.1029C66.4359 63.1029 66.0348 63.2974 65.8817 63.636H65.8671V63.2037H65.3056V66.8992H65.8963V64.3491C65.8963 63.8088 66.3265 63.6071 66.6473 63.6071C67.1869 63.6071 67.2015 64.0682 67.2015 64.3491V66.8992H67.7921V64.2771C67.7921 63.8449 67.7921 63.1029 66.8005 63.1029ZM69.338 62.1304H68.7474V63.2037H68.1932V63.6576H68.7474V66.2076C68.7474 66.6903 68.8932 66.9424 69.513 66.9424C69.7609 66.9424 69.9141 66.9136 69.9943 66.8992V66.4237C69.9286 66.4309 69.863 66.4453 69.7318 66.4453C69.4182 66.4453 69.3453 66.3301 69.3453 66.0347V63.6648H70.0016V63.2109H69.3453V62.1304H69.338ZM80.0278 66.8919H80.6185V63.1965H80.0278V66.8919ZM60.4566 63.1029C60.0701 63.1029 59.7274 63.3622 59.5597 63.6864C59.443 63.2686 59.1805 63.1029 58.743 63.1029C58.3784 63.1029 57.9773 63.2974 57.8242 63.636H57.8096V63.2037H57.2409V66.8992H57.8315V64.3491C57.8315 63.7728 58.2617 63.6071 58.5388 63.6071C59.0274 63.6071 59.0492 64.0682 59.0492 64.3491V66.8992H59.6399V64.3491C59.6399 63.7728 60.0701 63.6071 60.3472 63.6071C60.8357 63.6071 60.8576 64.0682 60.8576 64.3491V66.8992H61.4482V64.2771C61.4555 63.8449 61.4555 63.1029 60.4566 63.1029ZM86.3644 62.6347H86.9624V61.9719H86.3644V62.6347ZM93 65.1199H91.0093C91.0093 65.6818 91.0093 66.539 91.7385 66.539C92.3 66.539 92.3802 65.9627 92.3802 65.6818H92.9708C92.9708 66.0779 92.7302 66.9928 91.7021 66.9928C90.776 66.9928 90.3895 66.3661 90.3895 65.0983C90.3895 64.1762 90.5718 63.1101 91.7385 63.1101C92.8979 63.1101 93 64.097 93 64.8894V65.1199ZM92.3802 64.4644C92.3802 64.0466 92.2489 63.5639 91.7239 63.5639C91.1041 63.5639 91.0312 64.3059 91.0312 64.5292V64.6661H92.3802V64.4644ZM86.3644 66.8919H86.9624V63.1965H86.3644V66.8919ZM88.7999 66.1644H88.7853L88.078 63.2037H87.429L88.4499 66.8992H89.128L90.1489 63.2037H89.4999L88.7999 66.1644ZM80.0278 62.6347H80.6185V61.9719H80.0278V62.6347ZM8.01372 63.1029C7.64913 63.1029 7.24808 63.2974 7.09495 63.636H7.08037V63.2037H6.5189V66.8992H7.10953V64.3491C7.10953 63.8088 7.53975 63.6071 7.86059 63.6071C8.40019 63.6071 8.41477 64.0682 8.41477 64.3491V66.8992H9.00541V64.2771C9.0127 63.8449 9.0127 63.1029 8.01372 63.1029ZM83.8925 66.5246C83.9727 66.5246 84.0092 66.5102 84.0383 66.4885V66.8992C83.9946 66.9064 83.8415 66.9352 83.6883 66.9352C83.4623 66.9352 83.1779 66.9352 83.1487 66.4597H83.1342C82.9446 66.7911 82.5727 66.9928 82.2227 66.9928C81.5154 66.9928 81.1945 66.5822 81.1945 65.9195C81.1945 65.4008 81.4206 65.0478 81.9091 64.8966L82.7039 64.6661C83.1342 64.5364 83.1342 64.4139 83.1342 64.1042C83.1342 63.7584 82.9227 63.5567 82.5289 63.5567C81.88 63.5567 81.88 64.1474 81.88 64.2843V64.3203H81.2893C81.2893 63.4775 81.6539 63.1101 82.5581 63.1101C83.7102 63.1101 83.7102 63.7872 83.7102 64.169V66.2292C83.7102 66.3805 83.7102 66.5246 83.8925 66.5246ZM83.1123 64.8822C82.8935 65.1127 82.3685 65.1559 82.0987 65.3144C81.9091 65.4296 81.8143 65.5737 81.8143 65.8979C81.8143 66.2724 81.9456 66.5318 82.3466 66.5318C82.7331 66.5318 83.105 66.2076 83.105 65.833V64.8822H83.1123ZM85.2707 62.1304H84.68V63.2037H84.1258V63.6576H84.68V66.2076C84.68 66.6903 84.8259 66.9424 85.4457 66.9424C85.6936 66.9424 85.8467 66.9136 85.9269 66.8992V66.4237C85.8613 66.4309 85.7957 66.4453 85.6644 66.4453C85.3509 66.4453 85.278 66.3301 85.278 66.0347V63.6648H85.9342V63.2109H85.278V62.1304H85.2707ZM28.3433 66.8992H28.934V61.9791H28.3433V66.8992ZM29.685 62.6347H30.2757V61.9719H29.685V62.6347ZM23.6766 63.7512H23.662V63.1965H23.0714V66.8919H23.662V64.558C23.662 63.9457 24.1432 63.6864 24.4422 63.6864C24.6318 63.6864 24.7047 63.708 24.7631 63.7152V63.1533C24.7047 63.1245 24.6245 63.1101 24.5005 63.1101C24.0776 63.1029 23.8443 63.4054 23.6766 63.7512ZM29.685 66.8919H30.2757V63.1965H29.685V66.8919ZM21.9922 62.1304H21.4015V63.2037H20.8546V63.6576H21.4015V66.2076C21.4015 66.6903 21.5474 66.9424 22.1672 66.9424C22.4151 66.9424 22.5682 66.9136 22.6484 66.8992V66.4237C22.5828 66.4309 22.5172 66.4453 22.3859 66.4453C22.0724 66.4453 21.9995 66.3301 21.9995 66.0347V63.6648H22.6557V63.2109H21.9995V62.1304H21.9922ZM55.5054 63.1029C55.1408 63.1029 54.7398 63.2974 54.5866 63.636H54.5721V63.2037H54.0106V66.8992H54.6012V64.3491C54.6012 63.8088 55.0314 63.6071 55.3523 63.6071C55.8846 63.6071 55.9065 64.0682 55.9065 64.3491V66.8992H56.4971V64.2771C56.5044 63.8449 56.5044 63.1029 55.5054 63.1029ZM13.3222 61.9719L14.6785 66.8919H14.0295L13.6722 65.5377H12.0607L11.6888 66.8919H11.0398L12.4909 61.9719H13.3222ZM13.5409 65.0478L12.8992 62.6707H12.8847L12.1846 65.0478H13.5409ZM16.9608 65.7538C16.9608 66.2941 16.5306 66.4958 16.2097 66.4958C15.6774 66.4958 15.6556 66.0347 15.6556 65.7538V63.2037H15.0649V65.8258C15.0649 66.258 15.0649 67 16.0639 67C16.4285 67 16.8295 66.8055 16.9827 66.4669H16.9973V66.8992H17.5587V63.2037H16.9681V65.7538H16.9608ZM19.6879 64.7957C19.2213 64.6444 18.7546 64.558 18.7546 64.1258C18.7546 63.6071 19.1775 63.5639 19.3671 63.5639C19.7973 63.5639 19.9286 63.816 19.9286 64.2843H20.5192C20.5119 63.8521 20.4682 63.1029 19.3671 63.1029C18.7108 63.1029 18.1567 63.4343 18.1567 64.1258C18.1567 64.8894 18.6306 65.019 19.09 65.1703C19.5494 65.3216 20.0161 65.4224 20.0161 65.9195C20.0161 66.4453 19.5786 66.5318 19.389 66.5318C18.8129 66.5318 18.6817 66.1284 18.6817 65.6746H18.091C18.091 66.0563 18.1056 66.9856 19.389 66.9856C20.0963 66.9856 20.6067 66.611 20.6067 65.8258C20.614 65.1055 20.1473 64.947 19.6879 64.7957ZM51.298 64.8822V65.1199H49.3074C49.3074 65.6818 49.3074 66.539 50.0365 66.539C50.598 66.539 50.6782 65.9627 50.6782 65.6818H51.2689C51.2689 66.0779 51.0282 66.9928 50.0001 66.9928C49.074 66.9928 48.6875 66.3661 48.6875 65.0983C48.6875 64.1762 48.8698 63.1101 50.0365 63.1101C51.1886 63.1029 51.298 64.0898 51.298 64.8822ZM50.6709 64.4644C50.6709 64.0466 50.5397 63.5639 50.0147 63.5639C49.3949 63.5639 49.3219 64.3059 49.3219 64.5292V64.6661H50.6709V64.4644ZM33.5424 66.5246C33.6226 66.5246 33.6591 66.5102 33.681 66.4885V66.8992C33.6372 66.9064 33.4841 66.9352 33.3382 66.9352C33.1122 66.9352 32.8278 66.9352 32.7987 66.4597H32.7841C32.6018 66.7911 32.2299 66.9928 31.8799 66.9928C31.1726 66.9928 30.8517 66.5822 30.8517 65.9195C30.8517 65.4008 31.0778 65.0478 31.5663 64.8966L32.3684 64.6661C32.7987 64.5364 32.7987 64.4139 32.7987 64.1042C32.7987 63.7584 32.5872 63.5567 32.1934 63.5567C31.5445 63.5567 31.5445 64.1474 31.5445 64.2843V64.3203H30.9538C30.9538 63.4775 31.3184 63.1101 32.2226 63.1101C33.3747 63.1101 33.3747 63.7872 33.3747 64.169V66.2292C33.3601 66.3805 33.3601 66.5246 33.5424 66.5246ZM32.7695 64.8822C32.5507 65.1127 32.0257 65.1559 31.7559 65.3144C31.5663 65.4296 31.4642 65.5737 31.4642 65.8979C31.4642 66.2724 31.5955 66.5318 31.9966 66.5318C32.383 66.5318 32.7622 66.2076 32.7622 65.833V64.8822H32.7695ZM52.5012 63.7512H52.4866V63.1965H51.896V66.8919H52.4866V64.558C52.4866 63.9457 52.9679 63.6864 53.2595 63.6864C53.4491 63.6864 53.522 63.708 53.5804 63.7152V63.1533C53.522 63.1245 53.4418 63.1101 53.3179 63.1101C52.9022 63.1029 52.6762 63.4054 52.5012 63.7512ZM47.0979 66.1644H47.0833L46.376 63.2037H45.7271L46.7479 66.8992H47.4261L48.4469 63.2037H47.798L47.0979 66.1644ZM35.6498 63.1029C35.2852 63.1029 34.8841 63.2974 34.731 63.636H34.7164V63.2037H34.1549V66.8992H34.7456V64.3491C34.7456 63.8088 35.1758 63.6071 35.4966 63.6071C36.0289 63.6071 36.0508 64.0682 36.0508 64.3491V66.8992H36.6414V64.2771C36.6487 63.8449 36.6487 63.1029 35.6498 63.1029ZM45.5156 65.0478C45.5156 66.0852 45.2385 66.9928 44.152 66.9928C43.0583 66.9928 42.7885 66.0924 42.7885 65.0478C42.7885 64.0033 43.0655 63.1029 44.152 63.1029C45.2458 63.1029 45.5156 64.0105 45.5156 65.0478ZM44.8958 65.0478C44.8958 64.2483 44.7718 63.5567 44.1374 63.5567C43.5395 63.5567 43.4083 64.2483 43.4083 65.0478C43.4083 65.8474 43.5322 66.539 44.1374 66.539C44.7718 66.539 44.8958 65.8474 44.8958 65.0478ZM40.6884 62.3753C41.3009 62.3753 41.4978 62.822 41.527 63.3406H42.1759C42.1687 63.0885 42.1322 61.8783 40.6884 61.8783C39.2957 61.8783 39.0623 63.1965 39.0623 64.4355C39.0623 65.761 39.2957 66.9928 40.6082 66.9928C41.1624 66.9928 41.5634 66.647 41.6947 66.2292H41.7093V66.8992H42.1759V64.3419H40.6155V64.8389H41.6145C41.6145 65.4945 41.5488 66.4958 40.6884 66.4958C39.828 66.4958 39.7113 65.5737 39.7113 64.4355C39.7186 63.2974 39.828 62.3753 40.6884 62.3753Z" fill="#003E6A"/>
</svg>
